<?xml version="1.0" encoding="UTF-8" standalone="no"?>
<svg
   xmlns:dc="http://purl.org/dc/elements/1.1/"
   xmlns:cc="http://creativecommons.org/ns#"
   xmlns:rdf="http://www.w3.org/1999/02/22-rdf-syntax-ns#"
   xmlns:svg="http://www.w3.org/2000/svg"
   xmlns="http://www.w3.org/2000/svg"
   viewBox="0 0 119.99996 119.99997"
   height="119.99997"
   width="119.99996"
   version="1.1"
   id="svg3406">
  <metadata
     id="metadata3412">
    <rdf:RDF>
      <cc:Work
         rdf:about="">
        <dc:format>image/svg+xml</dc:format>
        <dc:type
           rdf:resource="http://purl.org/dc/dcmitype/StillImage" />
        <dc:title></dc:title>
      </cc:Work>
    </rdf:RDF>
  </metadata>
  <defs
     id="defs3410" />
  <path
     id="path15670"
     d="m 49.748199,119.90809 c -0.806845,-0.0506 -3.787302,-0.81318 -6.623239,-1.69472 l -5.15625,-1.60282 0,-3.94194 0,-3.94194 -4.601554,-2.64165 -4.601554,-2.64164 -3.580107,1.95018 -3.580108,1.95019 -4.474588,-4.47458 -4.474589,-4.4746 1.97252,-3.62088 1.972515,-3.62087 -0.947075,-1.69233 -0.94707,-1.69233 2.175817,-1.4622 c 1.196702,-0.80422 3.731751,-2.39831 5.633442,-3.54244 l 3.45762,-2.08022 2.955382,4.1153 2.955383,4.11529 5.739847,3.83293 5.739849,3.83292 5.17196,1.50353 5.171962,1.50353 8.631802,-0.37752 8.631804,-0.37753 6.034871,-2.97096 6.03487,-2.97096 3.779145,-3.55429 c 2.07853,-1.95486 4.472024,-4.57473 5.318878,-5.82194 l 1.539733,-2.26765 3.55087,1.60853 c 1.952981,0.8847 4.555625,2.37072 5.783655,3.30227 l 2.23277,1.69373 -0.92404,1.65117 -0.92405,1.65117 1.97252,3.62087 1.97252,3.62088 -4.47458,4.4746 -4.474598,4.47458 -3.580106,-1.95019 -3.580109,-1.95018 -4.601553,2.64164 -4.601554,2.64165 0,3.92899 0,3.92901 -5.625,1.69493 c -3.09375,0.93221 -6.074207,1.70066 -6.623239,1.70767 l -0.998238,0.0127 -1.564719,-3.28125 -1.564719,-3.28125 -5.655335,0 -5.655335,0 -1.564719,3.28125 -1.564719,3.28125 -1.466988,-0.0919 z M 13.71692,85.3125 c -0.27433,0 -0.91479,-0.73828 -1.42324,-1.64063 l -0.92446,-1.64062 -3.97696,0 -3.97697,0 -1.69493,-5.625 C 0.78815,73.3125 0.0197,70.33204 0.0127,69.78301 L 0,68.78477 3.28125,67.22005 6.5625,65.65533 6.5625,60 l 0,-5.65534 L 3.28125,52.77994 0,51.21523 0.0573,49.74824 C 0.0888,48.94139 0.84394,45.96094 1.73539,43.125 l 1.62083,-5.15625 3.99925,-0.0756 3.99926,-0.0756 1.29134,-2.48906 c 0.71023,-1.36898 1.92764,-3.39751 2.70535,-4.50785 l 1.414015,-2.01879 -2.283835,-3.36096 -2.28383,-3.36096 4.836067,-4.8969 4.836069,-4.89689 1.486932,0.81953 c 0.817813,0.45075 2.317096,1.43932 3.33174,2.19683 l 1.844809,1.3773 4.717691,-2.69478 4.717692,-2.69477 0,-3.93972 0,-3.93972 5.625,-1.69262 c 3.09375,-0.93094 6.074207,-1.69835 6.623239,-1.70535 l 0.998238,-0.0127 1.564719,3.28125 1.564719,3.28125 2.399989,0 2.399989,0 -0.275446,6.78681 -0.275447,6.78682 -5.15625,0.72146 -5.15625,0.72146 -5.887153,2.87665 -5.887153,2.87664 -4.587301,4.5873 -4.587301,4.5873 -3.043467,6.18216 -3.043468,6.18216 -0.439347,7.58945 -0.439346,7.58945 16.636923,-0.64936 16.636923,-0.64936 1.304719,1.08282 1.304721,1.08282 0,2.72713 0,2.72714 -1.253339,0.48095 -1.253339,0.48095 0.997059,3.18554 0.99706,3.18555 0.674055,-1.09065 0.674055,-1.09064 0.541792,0.54179 0.541792,0.54179 -0.61014,1.59 -0.61014,1.59 -1.990053,-0.28394 -1.990052,-0.28394 -0.46875,-3.27061 -0.46875,-3.2706 -1.640625,-0.31376 -1.640625,-0.31376 0,3.27186 0,3.27187 1.171875,0.47494 c 0.644531,0.26122 -4.523438,0.24107 -11.484375,-0.0448 l -12.65625,-0.51974 -5.782748,3.40417 c -3.180511,1.87229 -6.007202,3.40417 -6.281542,3.40417 z m 31.28304,-6.5625 0.9375,0 0,-7.5 0,-7.5 -0.9375,0 -0.9375,0 -0.119953,1.17187 c -0.06597,0.64453 -0.08317,2.4375 -0.0382,3.98438 l 0.08175,2.8125 -11.220365,-0.33337 -11.220364,-0.33338 0.61477,1.60207 0.61477,1.60206 10.664262,-0.33853 10.664262,-0.33853 -0.128424,1.41359 c -0.07063,0.77747 -0.07984,1.94093 -0.02046,2.58546 l 0.107952,1.17188 0.9375,0 z m -12.1875,-1.875 9.375,0 0,-0.9375 0,-0.9375 -9.375,0 -9.375,0 0,0.9375 0,0.9375 9.375,0 z M 50.041418,71.25 c 0.710302,0 1.797374,-0.60959 2.415716,-1.35465 l 1.124258,-1.35465 -0.306341,-2.16097 -0.306341,-2.16098 -2.109375,-0.29958 -2.109375,-0.29958 0,3.8152 0,3.81521 1.291458,0 z m -18.166458,-0.9375 10.3125,0 0,-0.9375 0,-0.9375 -10.3125,0 -10.3125,0 0,0.9375 0,0.9375 10.3125,0 z m -0.46875,-3.75 10.78125,0 0,-0.9375 0,-0.9375 -10.78125,0 -10.78125,0 0,0.9375 0,0.9375 10.78125,0 z m 74.71904,18.72932 c -0.3611,-0.0114 -2.87138,-1.31183 -5.57841,-2.88989 -2.707036,-1.57806 -4.908108,-3.15078 -4.891271,-3.49494 0.01683,-0.34416 0.846807,-2.94605 1.844391,-5.78199 l 1.813791,-5.15625 0.03056,-7.34013 0.03065,-7.34013 -12.188825,0.30888 -12.188825,0.30888 0.0011,-0.9375 0.0011,-0.9375 11.718975,0.33077 11.718925,0.33078 0,-1.59905 0,-1.59905 -11.578538,0.33077 -11.57854,0.33078 -0.01387,-6.09375 -0.01387,-6.09375 8.779906,0.32487 8.779906,0.32487 0,-0.90074 c 0,-0.49541 -2.104208,-3.0384 -4.676018,-5.6511 l -4.67602,-4.75036 -5.870855,-2.86862 -5.870857,-2.86862 -5.15625,-0.72146 -5.15625,-0.72146 -0.275447,-6.78682 -0.275446,-6.78681 2.399989,0 2.399989,0 L 67.220014,3.28125 68.784733,0 69.782971,0.0127 c 0.549032,0.007 3.529489,0.77442 6.623239,1.70536 l 5.625,1.69262 0,3.9119 0,3.9119 3.75,1.97864 c 2.0625,1.08824 4.125699,2.33227 4.584888,2.7645 l 0.834888,0.78587 3.359574,-2.28288 3.359569,-2.28289 4.902861,4.84196 4.90286,4.84196 -0.57916,1.01229 c -0.31854,0.55676 -1.33543,2.10638 -2.25975,3.44361 l -1.68059,2.43132 0.80092,0.84993 c 0.44049,0.46746 1.68037,2.5173 2.75527,4.55519 l 1.95435,3.70527 4.10552,-0.25247 4.10553,-0.25247 1.53601,6.11488 c 0.84481,3.36318 1.53601,6.47738 1.53601,6.92044 0,0.44306 -1.47656,1.50969 -3.28125,2.37028 l -3.28125,1.56472 0,5.65534 0,5.65533 3.28125,1.56472 3.28125,1.56472 -0.0127,0.99824 c -0.007,0.54903 -0.77544,3.52949 -1.70765,6.62324 l -1.69493,5.625 -3.97697,0 -3.97696,0 -0.92446,1.64062 c -0.50844,0.90235 -1.21989,1.63132 -1.58099,1.61995 z M 87.711538,48.75 l 10.836575,0 -0.579403,-0.9375 -0.579403,-0.9375 -10.257175,0 -10.257172,0 0,0.9375 0,0.9375 10.836578,0 z M 86.71871,45 l 9.84375,0 0,-0.9375 0,-0.9375 -9.84375,0 -9.84375,0 0,0.9375 0,0.9375 9.84375,0 z m -0.3125,-2.8125 8.28125,0 0,-1.40625 0,-1.40625 -8.382172,0 -8.382171,0 -0.498592,0.80674 -0.49859,0.80673 0.599512,0.59952 0.599513,0.59951 8.28125,0 z m -25.46875,37.42599 -2.34375,0.074 0,-5.15625 0,-5.15625 2.34375,0.074 2.34375,0.074 -1.171875,0.47286 -1.171875,0.47285 0,4.0625 0,4.0625 1.171875,0.47287 1.171875,0.47286 -2.34375,0.074 z m 7.03125,0.074 -2.300526,0 -1.606467,-2.45178 -1.606468,-2.45178 1.381809,-2.4701 1.381811,-2.47009 2.129647,-0.30635 2.129648,-0.30634 1.354648,1.12426 1.354648,1.12426 0,-1.05229 0,-1.05229 4.6875,0 4.6875,0 0,1.875 0,1.875 -0.9375,0 -0.9375,0 0,-1.40625 0,-1.40625 -0.9375,0 -0.9375,0 0,4.14062 0,4.14063 1.171875,0.47286 1.171875,0.47286 -3.28125,0 -3.28125,0 1.171875,-0.47286 1.171875,-0.47286 0,-4.14063 0,-4.14062 -0.835868,0 -0.835867,0 -0.633873,2.57812 c -0.348629,1.41797 -1.24784,3.52734 -1.998245,4.6875 l -1.364371,2.10938 -2.300526,0 z m 0,-0.9375 1.370527,0 0.571262,-2.27609 0.571262,-2.27609 -0.616577,-1.94266 -0.616576,-1.94266 -1.279898,0 -1.279898,0 -0.616576,1.94266 -0.616577,1.94266 0.571262,2.27609 0.571262,2.27609 1.370527,0 z M 33.038891,52.4341 29.984071,52.5 30.955028,50.85937 c 0.534026,-0.90234 1.922625,-4.51916 3.085774,-8.03736 l 2.114819,-6.39675 0.827282,-0.16575 0.827282,-0.16576 2.501794,7.5 2.501793,7.5 1.561844,0.30311 1.561844,0.30312 0,-4.20937 0,-4.20936 -1.171875,-0.47286 -1.171875,-0.47286 2.075577,-0.074 2.075577,-0.074 2.377548,3.49887 2.377548,3.49888 0,-2.952 0,-2.952 -1.171875,-0.47287 -1.171875,-0.47286 6.306513,-0.074 6.306513,-0.074 1.606467,2.45178 1.606468,2.45178 -1.380336,2.4701 -1.380335,2.47009 -4.188896,0.19463 -4.188894,0.19463 1.171875,-0.50713 1.171875,-0.50713 0,-4.14062 0,-4.14063 -1.875,0 -1.875,0 0,4.6875 0,4.6875 -0.703125,-0.007 c -0.386719,-0.004 -1.856599,-1.79668 -3.2664,-3.98437 l -2.563276,-3.97763 -0.01485,3.4375 -0.01485,3.4375 1.171875,0.47286 1.171875,0.47287 -5.625,0.0597 -5.625,0.0597 1.053849,-0.68877 1.05385,-0.68877 -0.789265,-2.10938 -0.789264,-2.10937 -1.93542,0 -1.93542,0 -0.7905,2.10937 -0.7905,2.10938 1.523835,0.63723 1.523835,0.63723 -3.054819,0.0659 z m 27.411958,-0.87161 1.388388,0 0.571262,-2.27609 0.571262,-2.27609 -0.616577,-1.94266 -0.616576,-1.94266 -1.343074,0 -1.343074,0 0,4.21875 0,4.21875 1.388389,0 z m -23.846153,-5.625 1.657227,0 -0.494144,-1.88961 C 37.496,43.00859 36.950924,41.95882 36.5565,41.71506 l -0.717136,-0.44322 -0.445947,2.33283 -0.445947,2.33282 1.657226,0 z m 32.770264,6.41447 -3.28125,0 1.171875,-0.47286 1.171875,-0.47286 0,-1.45184 c 0,-0.79852 -0.878158,-2.87274 -1.951462,-4.60938 l -1.951462,-3.15753 2.475541,0 2.47554,0 -0.574818,0.93007 -0.574819,0.93008 0.848561,1.51629 0.848559,1.51629 0.611471,-1.59347 0.611472,-1.59347 -0.52712,-0.85289 -0.52712,-0.8529 1.916549,0 1.916548,0 -1.857715,3.04687 c -1.021744,1.67578 -1.859293,3.75 -1.861221,4.60938 l -0.0035,1.5625 1.171875,0.47286 1.171875,0.47286 -3.28125,0 z"
     style="fill:#000000" />
</svg>
